<?xml version="1.0" encoding="UTF-8"?>
<!DOCTYPE svg PUBLIC "-//W3C//DTD SVG 1.1//EN" "http://www.w3.org/Graphics/SVG/1.1/DTD/svg11.dtd">
<svg xmlns="http://www.w3.org/2000/svg" version="1.1" width="1642px" height="668px" style="shape-rendering:geometricPrecision; text-rendering:geometricPrecision; image-rendering:optimizeQuality; fill-rule:evenodd; clip-rule:evenodd" xmlns:xlink="http://www.w3.org/1999/xlink">
<g><path style="opacity:0.402" fill="#1a273e" d="M 530.5,178.5 C 552.267,175.133 570.434,181.466 585,197.5C 590.786,208.42 593.786,220.087 594,232.5C 612.543,210.627 635.043,194.127 661.5,183C 689.903,173.095 714.736,178.595 736,199.5C 743.676,209.189 748.342,220.189 750,232.5C 768.394,211.567 790.228,195.4 815.5,184C 836.317,175.879 856.65,176.879 876.5,187C 890.004,196.523 898.838,209.357 903,225.5C 904.216,231.464 905.216,237.464 906,243.5C 906.333,309.167 906.667,374.833 907,440.5C 909.483,448.079 914.65,450.579 922.5,448C 927.267,445.069 931.601,441.569 935.5,437.5C 938.601,439.098 941.268,441.265 943.5,444C 920.356,479.161 888.023,493.161 846.5,486C 828.195,481.032 817.695,469.198 815,450.5C 814.667,381.833 814.333,313.167 814,244.5C 811.195,230.022 802.695,224.522 788.5,228C 772.338,235.333 759.505,246.499 750,261.5C 749.667,329.833 749.333,398.167 749,466.5C 745.921,474.58 740.421,480.414 732.5,484C 717.118,488.715 701.451,489.715 685.5,487C 671.489,484.319 662.656,476.152 659,462.5C 658.667,390.167 658.333,317.833 658,245.5C 654.17,228.002 644.004,222.835 627.5,230C 614.135,237.696 602.968,247.863 594,260.5C 593.667,328.167 593.333,395.833 593,463.5C 590.738,474.432 584.238,481.598 573.5,485C 557.594,489.242 541.594,489.575 525.5,486C 514.367,482.532 506.867,475.366 503,464.5C 502.98,384.14 502.313,303.807 501,223.5C 498.308,213.403 491.808,209.237 481.5,211C 477.053,212.39 473.053,214.556 469.5,217.5C 467.196,214.859 464.862,212.192 462.5,209.5C 481.953,192.107 504.62,181.773 530.5,178.5 Z"/></g>
<g><path style="opacity:1" fill="#fefffe" d="M 536.5,179.5 C 573.298,178.799 591.798,196.799 592,233.5C 592.414,233.957 592.914,234.291 593.5,234.5C 611.028,214.57 631.694,198.736 655.5,187C 679.263,176.182 702.263,177.515 724.5,191C 738.612,202.044 746.946,216.544 749.5,234.5C 764.946,217.874 782.279,203.708 801.5,192C 821.284,180.1 842.284,177.1 864.5,183C 882.467,189.635 894.301,202.135 900,220.5C 901.809,226.737 903.143,233.07 904,239.5C 904.017,307.203 904.684,374.87 906,442.5C 907.782,448.116 911.616,450.783 917.5,450.5C 921.114,450.196 924.448,449.029 927.5,447C 930.016,444.317 932.683,441.817 935.5,439.5C 938.696,440.517 940.529,442.517 941,445.5C 919.495,476.503 889.995,490.003 852.5,486C 833.715,483.21 821.882,472.71 817,454.5C 816.667,385.5 816.333,316.5 816,247.5C 814.695,231.513 806.195,224.347 790.5,226C 773.27,233.372 759.437,244.872 749,260.5C 748.667,328.167 748.333,395.833 748,463.5C 745.328,473.842 738.828,480.676 728.5,484C 712.492,488.607 696.492,488.607 680.5,484C 668.06,479.903 661.226,471.403 660,458.5C 659.667,386.5 659.333,314.5 659,242.5C 654.789,227.809 645.289,222.642 630.5,227C 615.241,234.588 602.741,245.422 593,259.5C 592.667,325.833 592.333,392.167 592,458.5C 592.213,467.91 588.38,475.077 580.5,480C 570.36,485.41 559.527,487.91 548,487.5C 535.999,487.835 524.832,485.001 514.5,479C 508.835,474.827 505.335,469.327 504,462.5C 503.667,383.5 503.333,304.5 503,225.5C 500.451,212.28 492.618,207.114 479.5,210C 476.12,211.441 472.953,213.274 470,215.5C 467.982,213.65 466.149,211.65 464.5,209.5C 485.275,191.78 509.275,181.78 536.5,179.5 Z"/></g>
<g><path style="opacity:0.455" fill="#1a273e" d="M 293.5,178.5 C 320.361,176.773 346.361,180.607 371.5,190C 401.082,202.579 418.249,224.746 423,256.5C 423.333,317.833 423.667,379.167 424,440.5C 426.393,449.28 431.893,452.114 440.5,449C 444.648,445.686 448.648,442.186 452.5,438.5C 455.784,440.117 458.451,442.45 460.5,445.5C 440.244,477.628 411.244,491.461 373.5,487C 352.621,480.815 339.788,466.982 335,445.5C 305.008,484.294 266.508,496.461 219.5,482C 194.348,468.894 180.848,448.06 179,419.5C 174.621,387.29 184.787,360.79 209.5,340C 221.185,331.151 233.851,323.818 247.5,318C 268.071,310.588 288.404,302.588 308.5,294C 328.533,279.926 336.033,260.759 331,236.5C 323.954,214.386 308.787,203.719 285.5,204.5C 271.053,204.372 258.053,208.539 246.5,217C 243.657,219.84 241.657,223.173 240.5,227C 241.083,229.499 242.416,231.499 244.5,233C 253.344,235.336 260.844,239.836 267,246.5C 273.583,267.829 266.083,281.662 244.5,288C 218.881,289.776 204.381,277.942 201,252.5C 199.397,234.972 204.73,219.972 217,207.5C 230.012,195.703 245.178,187.87 262.5,184C 272.87,181.547 283.203,179.714 293.5,178.5 Z M 309.5,317.5 C 316.821,316.407 323.321,318.074 329,322.5C 329.667,323.833 330.333,325.167 331,326.5C 331.667,354.5 331.667,382.5 331,410.5C 327.573,426.92 318.073,438.087 302.5,444C 285.329,446.494 274.496,439.327 270,422.5C 263.676,399.731 264.009,377.064 271,354.5C 276.952,334.709 289.786,322.376 309.5,317.5 Z"/></g>
<g><path style="opacity:1" fill="#fefffe" d="M 301.5,179.5 C 328.431,178.653 354.097,183.82 378.5,195C 404.673,209.509 419.173,231.676 422,261.5C 422.333,321.833 422.667,382.167 423,442.5C 424.421,448.919 428.421,451.919 435,451.5C 438.129,451.671 440.963,450.838 443.5,449C 446.349,445.984 449.349,443.15 452.5,440.5C 455.109,441.443 457.109,443.11 458.5,445.5C 438.124,477.688 409.124,490.855 371.5,485C 351.371,477.863 339.538,463.696 336,442.5C 315.507,470.582 287.84,485.582 253,487.5C 211.862,486.026 187.862,465.026 181,424.5C 174.555,380.558 191.055,348.391 230.5,328C 253.684,317.161 277.351,307.494 301.5,299C 322.294,289.601 333.294,273.435 334.5,250.5C 333.818,226.602 322.151,211.102 299.5,204C 279.746,200.44 261.746,204.44 245.5,216C 240.709,219.742 238.876,224.576 240,230.5C 245.254,234.597 251.088,237.763 257.5,240C 267.011,245.52 270.511,253.687 268,264.5C 263.109,278.633 253.109,286.3 238,287.5C 218.184,286.35 206.517,276.016 203,256.5C 200.054,230.892 209.554,211.392 231.5,198C 253.549,186.563 276.882,180.397 301.5,179.5 Z M 309.5,317.5 C 289.786,322.376 276.952,334.709 271,354.5C 264.009,377.064 263.676,399.731 270,422.5C 274.496,439.327 285.329,446.494 302.5,444C 318.073,438.087 327.573,426.92 331,410.5C 331.667,382.5 331.667,354.5 331,326.5C 330.333,325.167 329.667,323.833 329,322.5C 323.321,318.074 316.821,316.407 309.5,317.5 Z"/></g>
<g><path style="opacity:0.744" fill="#1a273e" d="M 313.5,315.5 C 320.369,315.398 326.202,317.731 331,322.5C 331.973,324.392 332.64,326.392 333,328.5C 333.948,356.535 333.615,384.535 332,412.5C 328.232,427.932 319.065,438.766 304.5,445C 284.391,448.917 272.225,440.751 268,420.5C 262.02,394.95 263.687,369.95 273,345.5C 281.32,328.327 294.82,318.327 313.5,315.5 Z M 309.5,317.5 C 289.786,322.376 276.952,334.709 271,354.5C 264.009,377.064 263.676,399.731 270,422.5C 274.496,439.327 285.329,446.494 302.5,444C 318.073,438.087 327.573,426.92 331,410.5C 331.667,382.5 331.667,354.5 331,326.5C 330.333,325.167 329.667,323.833 329,322.5C 323.321,318.074 316.821,316.407 309.5,317.5 Z"/></g>
<g><path style="opacity:0.452" fill="#1a273e" d="M 1086.5,178.5 C 1159.15,175.2 1206.65,207.867 1229,276.5C 1237.63,311.827 1237.63,347.161 1229,382.5C 1218.97,420.168 1197.8,449.668 1165.5,471C 1121.34,493.965 1077,494.298 1032.5,472C 998.916,451.045 977.416,421.212 968,382.5C 961.136,351.238 960.803,319.904 967,288.5C 981.592,224.063 1021.43,187.396 1086.5,178.5 Z M 1090.5,210.5 C 1106.73,207.699 1118.89,213.366 1127,227.5C 1132.47,238.242 1136.14,249.575 1138,261.5C 1143.97,308.164 1143.97,354.831 1138,401.5C 1135.82,417.382 1130.49,432.049 1122,445.5C 1113.7,455.379 1103.2,458.879 1090.5,456C 1082.21,453.376 1076.04,448.209 1072,440.5C 1066,429.178 1062,417.178 1060,404.5C 1055.4,366.934 1054.4,329.267 1057,291.5C 1057.46,272.634 1060.79,254.301 1067,236.5C 1071.66,224.689 1079.49,216.022 1090.5,210.5 Z"/></g>
<g><path style="opacity:1" fill="#fefffe" d="M 1093.5,179.5 C 1158.32,178.783 1202.15,208.45 1225,268.5C 1235.95,308.058 1236.28,347.725 1226,387.5C 1206.17,449.84 1163.67,483.174 1098.5,487.5C 1034.39,484.368 992.228,452.368 972,391.5C 964.015,360.19 962.349,328.523 967,296.5C 973.476,257.344 992.31,225.844 1023.5,202C 1044.95,188.348 1068.29,180.848 1093.5,179.5 Z M 1090.5,210.5 C 1079.49,216.022 1071.66,224.689 1067,236.5C 1060.79,254.301 1057.46,272.634 1057,291.5C 1054.4,329.267 1055.4,366.934 1060,404.5C 1062,417.178 1066,429.178 1072,440.5C 1076.04,448.209 1082.21,453.376 1090.5,456C 1103.2,458.879 1113.7,455.379 1122,445.5C 1130.49,432.049 1135.82,417.382 1138,401.5C 1143.97,354.831 1143.97,308.164 1138,261.5C 1136.14,249.575 1132.47,238.242 1127,227.5C 1118.89,213.366 1106.73,207.699 1090.5,210.5 Z"/></g>
<g><path style="opacity:0.455" fill="#1a283e" d="M 1093.5,208.5 C 1108.86,207.263 1120.36,213.263 1128,226.5C 1132.72,234.982 1136.05,243.982 1138,253.5C 1140.79,267.7 1142.45,282.034 1143,296.5C 1144.08,327.877 1143.41,359.211 1141,390.5C 1139.5,410.18 1133.83,428.513 1124,445.5C 1111.03,460.165 1096.2,462.332 1079.5,452C 1068.05,439.009 1061.22,423.842 1059,406.5C 1056.71,393.598 1055.38,380.598 1055,367.5C 1054.33,344.833 1054.33,322.167 1055,299.5C 1055.39,279.427 1058.39,259.76 1064,240.5C 1067.27,230.783 1072.44,222.283 1079.5,215C 1083.88,211.975 1088.54,209.808 1093.5,208.5 Z M 1090.5,210.5 C 1079.49,216.022 1071.66,224.689 1067,236.5C 1060.79,254.301 1057.46,272.634 1057,291.5C 1054.4,329.267 1055.4,366.934 1060,404.5C 1062,417.178 1066,429.178 1072,440.5C 1076.04,448.209 1082.21,453.376 1090.5,456C 1103.2,458.879 1113.7,455.379 1122,445.5C 1130.49,432.049 1135.82,417.382 1138,401.5C 1143.97,354.831 1143.97,308.164 1138,261.5C 1136.14,249.575 1132.47,238.242 1127,227.5C 1118.89,213.366 1106.73,207.699 1090.5,210.5 Z"/></g>
<g><path style="opacity:0.425" fill="#1a273e" d="M 1349.5,178.5 C 1370.31,177.314 1390.65,179.814 1410.5,186C 1439.04,196.859 1451.21,217.359 1447,247.5C 1439,262.63 1426.5,268.13 1409.5,264C 1396.82,260.153 1391.65,251.653 1394,238.5C 1398.09,231.528 1403.92,226.528 1411.5,223.5C 1414.18,218.035 1412.85,213.535 1407.5,210C 1392.69,201.823 1377.69,201.49 1362.5,209C 1352.78,216.811 1348.95,226.977 1351,239.5C 1352.16,244.828 1354.16,249.828 1357,254.5C 1360.67,259.167 1364.33,263.833 1368,268.5C 1388.33,288.167 1408.67,307.833 1429,327.5C 1439.96,339.467 1448.96,352.801 1456,367.5C 1467.4,399.003 1463.4,428.336 1444,455.5C 1424.66,475.915 1400.83,486.748 1372.5,488C 1324.05,490.774 1285.72,472.607 1257.5,433.5C 1260.56,430.275 1264.06,427.608 1268,425.5C 1278.87,436.361 1291.37,444.861 1305.5,451C 1323.24,456.17 1340.24,454.17 1356.5,445C 1368.68,434.448 1372.85,421.281 1369,405.5C 1364.12,393.401 1357.45,382.401 1349,372.5C 1336.37,358.199 1323.37,344.199 1310,330.5C 1295.94,315.393 1284.6,298.393 1276,279.5C 1262.63,233.077 1278.46,201.244 1323.5,184C 1332.19,181.564 1340.85,179.731 1349.5,178.5 Z"/></g>
<g><path style="opacity:1" fill="#fefffe" d="M 1355.5,179.5 C 1374.67,179.12 1393.34,181.953 1411.5,188C 1437.79,198.419 1449.29,217.586 1446,245.5C 1441.52,257.827 1432.69,263.827 1419.5,263.5C 1399.75,263.584 1392.25,254.25 1397,235.5C 1401.71,230.558 1407.21,226.725 1413.5,224C 1414.87,220.459 1414.71,216.959 1413,213.5C 1409.24,208.705 1404.41,205.538 1398.5,204C 1387.73,201.739 1377.06,202.072 1366.5,205C 1352.25,213.011 1346.75,225.178 1350,241.5C 1350.74,245.385 1352.07,249.052 1354,252.5C 1358.09,258.347 1362.42,264.013 1367,269.5C 1387.33,289.167 1407.67,308.833 1428,328.5C 1439.59,341.331 1448.92,355.664 1456,371.5C 1467.38,407.49 1459.54,438.656 1432.5,465C 1410.97,480.598 1386.8,488.098 1360,487.5C 1317.48,485.831 1283.98,467.831 1259.5,433.5C 1262.25,430.299 1265.58,428.465 1269.5,428C 1283.98,444.489 1302.14,453.655 1324,455.5C 1340.35,456.057 1354.01,450.39 1365,438.5C 1373.63,423.231 1373.63,407.898 1365,392.5C 1348.87,370.028 1330.87,349.028 1311,329.5C 1297.65,314.804 1286.65,298.471 1278,280.5C 1263.81,236.706 1277.64,205.539 1319.5,187C 1331.36,183.128 1343.36,180.628 1355.5,179.5 Z"/></g>
</svg>
